<svg width="107" height="103" viewBox="0 0 107 103" fill="none" xmlns="http://www.w3.org/2000/svg">
<g filter="url(#filter0_d_137_28)">
<path d="M7.30957 54.5576L98.7511 54.5576" stroke="#00C2FF" stroke-width="2"/>
</g>
<g filter="url(#filter1_d_137_28)">
<path d="M32.1729 32.4976V54.5576H42.6707V42.8891L32.1729 32.4976Z" stroke="#00C2FF" shape-rendering="crispEdges"/>
</g>
<g filter="url(#filter2_d_137_28)">
<path d="M44.1117 42.4258L32.1729 30.4331V18.0918H45.9858V54.5579H44.1117V42.4258Z" stroke="#00C2FF" shape-rendering="crispEdges"/>
</g>
<g filter="url(#filter3_d_137_28)">
<path d="M47.0908 11.3928V54.5577H56.7704L57.0707 11.3928H47.0908Z" stroke="#00C2FF" shape-rendering="crispEdges"/>
<path d="M58.2761 10.2262V54.5577H62.0763V5.19507H51.3929V10.2262H58.2761Z" stroke="#00C2FF" shape-rendering="crispEdges"/>
<path d="M63.4386 54.5577V13.7857V13.2962L65.8764 15.674V54.5577H63.4386Z" stroke="#00C2FF" shape-rendering="crispEdges"/>
</g>
<g filter="url(#filter4_d_137_28)">
<path d="M66.9814 51.6024V54.5579H77.7555L66.9814 51.6024Z" stroke="#00C2FF" shape-rendering="crispEdges"/>
<path d="M66.9814 50.4062L77.7555 53.6431V50.4062L66.9814 47.0989V50.4062Z" stroke="#00C2FF" shape-rendering="crispEdges"/>
</g>
<g filter="url(#filter5_d_137_28)">
<path d="M77.7554 44.5292L77.7554 41.5737L66.9813 41.5737L77.7554 44.5292Z" stroke="#00C2FF" shape-rendering="crispEdges"/>
<path d="M77.7554 45.7254L66.9813 42.4885L66.9813 45.7254L77.7554 49.0327L77.7554 45.7254Z" stroke="#00C2FF" shape-rendering="crispEdges"/>
</g>
<g filter="url(#filter6_d_137_28)">
<path d="M10.6815 76.7173L10.6815 69.1093H7.05749V76.7173H5.13749L5.13749 59.9173H7.05749L7.05749 67.5733H10.6815V59.9173H12.5775L12.5775 76.7173H10.6815ZM21.2306 76.7173L20.4866 72.3493H17.1026L16.3826 76.7173H14.4626L17.5346 59.9173H20.0786L23.1506 76.7173H21.2306ZM18.8066 62.3413L17.3666 70.8133H20.2226L18.8066 62.3413ZM30.1959 72.9493C30.1959 71.6693 29.7639 70.6853 28.8999 69.9973L26.9799 68.5813C25.5399 67.5573 24.8199 66.0453 24.8199 64.0453C24.8199 62.3813 25.1319 61.2213 25.7559 60.5653C26.3959 59.8933 27.2599 59.5573 28.3479 59.5573C29.4519 59.5573 30.3079 59.8693 30.9159 60.4933C31.5239 61.1013 31.8919 62.2133 32.0199 63.8293L30.1959 64.2373C30.1319 62.1893 29.5319 61.1653 28.3959 61.1653C27.2759 61.1653 26.7159 62.0373 26.7159 63.7813C26.7159 64.5493 26.7959 65.1733 26.9559 65.6533C27.1319 66.1333 27.4599 66.5653 27.9399 66.9493L29.8359 68.3653C30.2839 68.6853 30.6439 68.9893 30.9159 69.2773C31.1879 69.5653 31.4439 70.0293 31.6839 70.6693C31.9399 71.2933 32.0679 72.0373 32.0679 72.9013C32.0679 74.4373 31.7319 75.5173 31.0599 76.1413C30.4039 76.7653 29.5079 77.0773 28.3719 77.0773C27.2359 77.0773 26.3479 76.7093 25.7079 75.9733C25.0679 75.2373 24.6759 73.9253 24.5319 72.0373L26.3319 71.7253C26.3959 73.0853 26.5879 74.0533 26.9079 74.6293C27.2439 75.2053 27.7079 75.4933 28.2999 75.4933C29.5639 75.4933 30.1959 74.6453 30.1959 72.9493ZM37.2517 70.1413V68.6533H41.8597V70.1413H37.2517ZM49.0959 72.0853C49.0959 73.3973 49.2479 74.3013 49.5519 74.7973C49.8559 75.2773 50.2879 75.5173 50.8479 75.5173C51.4079 75.5173 51.8239 75.3093 52.0959 74.8933C52.3839 74.4613 52.5759 73.6533 52.6719 72.4693L54.3519 72.6853C54.2079 74.3173 53.8399 75.4613 53.2479 76.1173C52.6719 76.7573 51.8399 77.0773 50.7519 77.0773C49.6639 77.0773 48.7999 76.6853 48.1599 75.9013C47.5199 75.1173 47.1999 73.6773 47.1999 71.5813V65.0533C47.1999 62.9573 47.5199 61.5173 48.1599 60.7333C48.7999 59.9493 49.6559 59.5573 50.7279 59.5573C51.8159 59.5573 52.6399 59.8373 53.1999 60.3973C53.7759 60.9573 54.1279 61.9573 54.2559 63.3973L52.5039 63.8293C52.4079 62.8053 52.2239 62.1013 51.9519 61.7173C51.6959 61.3173 51.3039 61.1173 50.7759 61.1173C50.2639 61.1173 49.8559 61.3733 49.5519 61.8853C49.2479 62.3813 49.0959 63.3013 49.0959 64.6453V72.0853ZM62.1525 76.7173L61.4085 72.3493H58.0245L57.3045 76.7173H55.3845L58.4565 59.9173H61.0005L64.0725 76.7173H62.1525ZM59.7285 62.3413L58.2885 70.8133H61.1445L59.7285 62.3413ZM65.9578 76.7173V59.9173H68.9338C70.1338 59.9173 71.0538 60.3093 71.6938 61.0933C72.3498 61.8613 72.6778 63.2613 72.6778 65.2933V65.4133C72.6778 67.4453 72.3498 68.8453 71.6938 69.6133C71.0538 70.3813 70.1338 70.7653 68.9338 70.7653H67.8778V76.7173H65.9578ZM70.7818 65.7253V64.9813C70.7818 62.6293 70.1658 61.4533 68.9338 61.4533H67.8778V69.2533H68.9338C70.1658 69.2533 70.7818 68.0773 70.7818 65.7253ZM74.6766 76.7173V59.9173H76.5966V76.7173H74.6766ZM78.4219 61.4533V59.9173H84.9739V61.4533H82.6459V76.7173H80.7499V61.4533H78.4219ZM91.7306 76.7173L90.9866 72.3493H87.6026L86.8826 76.7173H84.9626L88.0346 59.9173H90.5786L93.6506 76.7173H91.7306ZM89.3066 62.3413L87.8666 70.8133H90.7226L89.3066 62.3413ZM95.5359 76.7173V59.9173H97.4559V75.1813H101.176V76.7173H95.5359Z" fill="#00C2FF"/>
</g>
<g filter="url(#filter7_d_137_28)">
<path d="M11.4536 80.5259L94.6074 80.5259" stroke="#00C2FF" stroke-linecap="round"/>
</g>
<g filter="url(#filter8_d_137_28)">
<path d="M39.8271 92.4785L64.6904 92.4785" stroke="#00C2FF" stroke-linecap="round"/>
</g>
<g filter="url(#filter9_d_137_28)">
<path d="M38.1742 89.6099L37.8952 87.9719H36.6262L36.3562 89.6099H35.6362L36.7882 83.3099H37.7422L38.8942 89.6099H38.1742ZM37.2652 84.2189L36.7252 87.3959H37.7962L37.2652 84.2189ZM39.6012 89.6099V83.3099H40.7172C41.1672 83.3099 41.5122 83.4569 41.7522 83.7509C41.9982 84.0389 42.1212 84.5639 42.1212 85.3259V85.3709C42.1212 86.1329 41.9982 86.6579 41.7522 86.9459C41.5122 87.2339 41.1672 87.3779 40.7172 87.3779H40.3212V89.6099H39.6012ZM41.4102 85.4879V85.2089C41.4102 84.3269 41.1792 83.8859 40.7172 83.8859H40.3212V86.8109H40.7172C41.1792 86.8109 41.4102 86.3699 41.4102 85.4879ZM44.7836 89.6099L44.5046 87.9719H43.2356L42.9656 89.6099H42.2456L43.3976 83.3099H44.3516L45.5036 89.6099H44.7836ZM43.8746 84.2189L43.3346 87.3959H44.4056L43.8746 84.2189ZM46.2106 89.6099V83.3099H47.3266C47.7706 83.3099 48.1156 83.4509 48.3616 83.7329C48.6076 84.0149 48.7306 84.5219 48.7306 85.2539V85.2989C48.7306 86.2109 48.5086 86.7899 48.0646 87.0359L48.8116 89.6099H48.0736L47.3716 87.1979H46.9306V89.6099H46.2106ZM48.0196 85.3889V85.1189C48.0196 84.6569 47.9566 84.3359 47.8306 84.1559C47.7106 83.9759 47.5426 83.8859 47.3266 83.8859H46.9306V86.6309H47.3266C47.7886 86.6309 48.0196 86.2169 48.0196 85.3889ZM49.2322 83.8859V83.3099H51.6892V83.8859H50.8162V89.6099H50.1052V83.8859H49.2322ZM53.0737 89.6099H52.3717V83.3099H53.4697L54.2347 87.6749L55.0087 83.3099H56.1067V89.6099H55.4047V83.9219L54.6397 88.2599H53.8387L53.0737 83.9219V89.6099ZM57.9608 86.7569V89.0339H59.5268V89.6099H57.2408V83.3099H59.4998V83.8859H57.9608V86.1809H59.3648V86.7569H57.9608ZM61.1772 89.6099H60.4752V83.3099H61.2222L62.6892 87.9179V83.3099H63.3912V89.6099H62.6442L61.1772 85.0109V89.6099ZM64.077 83.8859V83.3099H66.534V83.8859H65.661V89.6099H64.95V83.8859H64.077ZM69.1514 88.1969C69.1514 87.7169 68.9894 87.3479 68.6654 87.0899L67.9454 86.5589C67.4054 86.1749 67.1354 85.6079 67.1354 84.8579C67.1354 84.2339 67.2524 83.7989 67.4864 83.5529C67.7264 83.3009 68.0504 83.1749 68.4584 83.1749C68.8724 83.1749 69.1934 83.2919 69.4214 83.5259C69.6494 83.7539 69.7874 84.1709 69.8354 84.7769L69.1514 84.9299C69.1274 84.1619 68.9024 83.7779 68.4764 83.7779C68.0564 83.7779 67.8464 84.1049 67.8464 84.7589C67.8464 85.0469 67.8764 85.2809 67.9364 85.4609C68.0024 85.6409 68.1254 85.8029 68.3054 85.9469L69.0164 86.4779C69.1844 86.5979 69.3194 86.7119 69.4214 86.8199C69.5234 86.9279 69.6194 87.1019 69.7094 87.3419C69.8054 87.5759 69.8534 87.8549 69.8534 88.1789C69.8534 88.7549 69.7274 89.1599 69.4754 89.3939C69.2294 89.6279 68.8934 89.7449 68.4674 89.7449C68.0414 89.7449 67.7084 89.6069 67.4684 89.3309C67.2284 89.0549 67.0814 88.5629 67.0274 87.8549L67.7024 87.7379C67.7264 88.2479 67.7984 88.6109 67.9184 88.8269C68.0444 89.0429 68.2184 89.1509 68.4404 89.1509C68.9144 89.1509 69.1514 88.8329 69.1514 88.1969Z" fill="#00C2FF"/>
</g>
<defs>
<filter id="filter0_d_137_28" x="3.30957" y="49.5576" width="99.4414" height="10" filterUnits="userSpaceOnUse" color-interpolation-filters="sRGB">
<feFlood flood-opacity="0" result="BackgroundImageFix"/>
<feColorMatrix in="SourceAlpha" type="matrix" values="0 0 0 0 0 0 0 0 0 0 0 0 0 0 0 0 0 0 127 0" result="hardAlpha"/>
<feOffset/>
<feGaussianBlur stdDeviation="2"/>
<feComposite in2="hardAlpha" operator="out"/>
<feColorMatrix type="matrix" values="0 0 0 0 0 0 0 0 0 0.760784 0 0 0 0 1 0 0 0 0.5 0"/>
<feBlend mode="normal" in2="BackgroundImageFix" result="effect1_dropShadow_137_28"/>
<feBlend mode="normal" in="SourceGraphic" in2="effect1_dropShadow_137_28" result="shape"/>
</filter>
<filter id="filter1_d_137_28" x="27.6729" y="27.2991" width="19.498" height="31.7585" filterUnits="userSpaceOnUse" color-interpolation-filters="sRGB">
<feFlood flood-opacity="0" result="BackgroundImageFix"/>
<feColorMatrix in="SourceAlpha" type="matrix" values="0 0 0 0 0 0 0 0 0 0 0 0 0 0 0 0 0 0 127 0" result="hardAlpha"/>
<feOffset/>
<feGaussianBlur stdDeviation="2"/>
<feComposite in2="hardAlpha" operator="out"/>
<feColorMatrix type="matrix" values="0 0 0 0 0 0 0 0 0 0.760784 0 0 0 0 1 0 0 0 0.5 0"/>
<feBlend mode="normal" in2="BackgroundImageFix" result="effect1_dropShadow_137_28"/>
<feBlend mode="normal" in="SourceGraphic" in2="effect1_dropShadow_137_28" result="shape"/>
</filter>
<filter id="filter2_d_137_28" x="27.6729" y="13.5918" width="22.813" height="45.4661" filterUnits="userSpaceOnUse" color-interpolation-filters="sRGB">
<feFlood flood-opacity="0" result="BackgroundImageFix"/>
<feColorMatrix in="SourceAlpha" type="matrix" values="0 0 0 0 0 0 0 0 0 0 0 0 0 0 0 0 0 0 127 0" result="hardAlpha"/>
<feOffset/>
<feGaussianBlur stdDeviation="2"/>
<feComposite in2="hardAlpha" operator="out"/>
<feColorMatrix type="matrix" values="0 0 0 0 0 0 0 0 0 0.760784 0 0 0 0 1 0 0 0 0.5 0"/>
<feBlend mode="normal" in2="BackgroundImageFix" result="effect1_dropShadow_137_28"/>
<feBlend mode="normal" in="SourceGraphic" in2="effect1_dropShadow_137_28" result="shape"/>
</filter>
<filter id="filter3_d_137_28" x="42.5908" y="0.695068" width="27.7856" height="58.3625" filterUnits="userSpaceOnUse" color-interpolation-filters="sRGB">
<feFlood flood-opacity="0" result="BackgroundImageFix"/>
<feColorMatrix in="SourceAlpha" type="matrix" values="0 0 0 0 0 0 0 0 0 0 0 0 0 0 0 0 0 0 127 0" result="hardAlpha"/>
<feOffset/>
<feGaussianBlur stdDeviation="2"/>
<feComposite in2="hardAlpha" operator="out"/>
<feColorMatrix type="matrix" values="0 0 0 0 0 0 0 0 0 0.760784 0 0 0 0 1 0 0 0 0.5 0"/>
<feBlend mode="normal" in2="BackgroundImageFix" result="effect1_dropShadow_137_28"/>
<feBlend mode="normal" in="SourceGraphic" in2="effect1_dropShadow_137_28" result="shape"/>
</filter>
<filter id="filter4_d_137_28" x="62.4814" y="42.4224" width="19.7739" height="16.6355" filterUnits="userSpaceOnUse" color-interpolation-filters="sRGB">
<feFlood flood-opacity="0" result="BackgroundImageFix"/>
<feColorMatrix in="SourceAlpha" type="matrix" values="0 0 0 0 0 0 0 0 0 0 0 0 0 0 0 0 0 0 127 0" result="hardAlpha"/>
<feOffset/>
<feGaussianBlur stdDeviation="2"/>
<feComposite in2="hardAlpha" operator="out"/>
<feColorMatrix type="matrix" values="0 0 0 0 0 0 0 0 0 0.760784 0 0 0 0 1 0 0 0 0.5 0"/>
<feBlend mode="normal" in2="BackgroundImageFix" result="effect1_dropShadow_137_28"/>
<feBlend mode="normal" in="SourceGraphic" in2="effect1_dropShadow_137_28" result="shape"/>
</filter>
<filter id="filter5_d_137_28" x="62.4814" y="37.0737" width="19.7739" height="16.6355" filterUnits="userSpaceOnUse" color-interpolation-filters="sRGB">
<feFlood flood-opacity="0" result="BackgroundImageFix"/>
<feColorMatrix in="SourceAlpha" type="matrix" values="0 0 0 0 0 0 0 0 0 0 0 0 0 0 0 0 0 0 127 0" result="hardAlpha"/>
<feOffset/>
<feGaussianBlur stdDeviation="2"/>
<feComposite in2="hardAlpha" operator="out"/>
<feColorMatrix type="matrix" values="0 0 0 0 0 0 0 0 0 0.760784 0 0 0 0 1 0 0 0 0.5 0"/>
<feBlend mode="normal" in2="BackgroundImageFix" result="effect1_dropShadow_137_28"/>
<feBlend mode="normal" in="SourceGraphic" in2="effect1_dropShadow_137_28" result="shape"/>
</filter>
<filter id="filter6_d_137_28" x="0.137695" y="54.5574" width="106.038" height="27.52" filterUnits="userSpaceOnUse" color-interpolation-filters="sRGB">
<feFlood flood-opacity="0" result="BackgroundImageFix"/>
<feColorMatrix in="SourceAlpha" type="matrix" values="0 0 0 0 0 0 0 0 0 0 0 0 0 0 0 0 0 0 127 0" result="hardAlpha"/>
<feOffset/>
<feGaussianBlur stdDeviation="2.5"/>
<feComposite in2="hardAlpha" operator="out"/>
<feColorMatrix type="matrix" values="0 0 0 0 0 0 0 0 0 0.760784 0 0 0 0 1 0 0 0 0.5 0"/>
<feBlend mode="normal" in2="BackgroundImageFix" result="effect1_dropShadow_137_28"/>
<feBlend mode="normal" in="SourceGraphic" in2="effect1_dropShadow_137_28" result="shape"/>
</filter>
<filter id="filter7_d_137_28" x="5.95361" y="75.0259" width="94.1538" height="11" filterUnits="userSpaceOnUse" color-interpolation-filters="sRGB">
<feFlood flood-opacity="0" result="BackgroundImageFix"/>
<feColorMatrix in="SourceAlpha" type="matrix" values="0 0 0 0 0 0 0 0 0 0 0 0 0 0 0 0 0 0 127 0" result="hardAlpha"/>
<feOffset/>
<feGaussianBlur stdDeviation="2.5"/>
<feComposite in2="hardAlpha" operator="out"/>
<feColorMatrix type="matrix" values="0 0 0 0 0 0 0 0 0 0.760784 0 0 0 0 1 0 0 0 0.5 0"/>
<feBlend mode="normal" in2="BackgroundImageFix" result="effect1_dropShadow_137_28"/>
<feBlend mode="normal" in="SourceGraphic" in2="effect1_dropShadow_137_28" result="shape"/>
</filter>
<filter id="filter8_d_137_28" x="29.3271" y="81.9785" width="45.8633" height="21" filterUnits="userSpaceOnUse" color-interpolation-filters="sRGB">
<feFlood flood-opacity="0" result="BackgroundImageFix"/>
<feColorMatrix in="SourceAlpha" type="matrix" values="0 0 0 0 0 0 0 0 0 0 0 0 0 0 0 0 0 0 127 0" result="hardAlpha"/>
<feOffset/>
<feGaussianBlur stdDeviation="5"/>
<feComposite in2="hardAlpha" operator="out"/>
<feColorMatrix type="matrix" values="0 0 0 0 0 0 0 0 0 0.760784 0 0 0 0 1 0 0 0 0.5 0"/>
<feBlend mode="normal" in2="BackgroundImageFix" result="effect1_dropShadow_137_28"/>
<feBlend mode="normal" in="SourceGraphic" in2="effect1_dropShadow_137_28" result="shape"/>
</filter>
<filter id="filter9_d_137_28" x="32.6362" y="80.1748" width="40.2173" height="12.5701" filterUnits="userSpaceOnUse" color-interpolation-filters="sRGB">
<feFlood flood-opacity="0" result="BackgroundImageFix"/>
<feColorMatrix in="SourceAlpha" type="matrix" values="0 0 0 0 0 0 0 0 0 0 0 0 0 0 0 0 0 0 127 0" result="hardAlpha"/>
<feOffset/>
<feGaussianBlur stdDeviation="1.5"/>
<feComposite in2="hardAlpha" operator="out"/>
<feColorMatrix type="matrix" values="0 0 0 0 0 0 0 0 0 0.760784 0 0 0 0 1 0 0 0 0.5 0"/>
<feBlend mode="normal" in2="BackgroundImageFix" result="effect1_dropShadow_137_28"/>
<feBlend mode="normal" in="SourceGraphic" in2="effect1_dropShadow_137_28" result="shape"/>
</filter>
</defs>
</svg>
