<svg width="98" height="97" viewBox="0 0 98 97" fill="none" xmlns="http://www.w3.org/2000/svg">
<g filter="url(#filter0_f_137_12)">
<rect x="28" y="28" width="42" height="41" fill="#7176EC"/>
</g>
<path d="M49 38.625C46.5136 38.625 44.129 39.6127 42.3709 41.3709C40.6127 43.129 39.625 45.5136 39.625 48C39.625 50.4864 40.6127 52.871 42.3709 54.6291C44.129 56.3873 46.5136 57.375 49 57.375C51.4864 57.375 53.871 56.3873 55.6291 54.6291C57.3873 52.871 58.375 50.4864 58.375 48C58.375 45.5136 57.3873 43.129 55.6291 41.3709C53.871 39.6127 51.4864 38.625 49 38.625ZM42.75 48C42.75 46.3424 43.4085 44.7527 44.5806 43.5806C45.7527 42.4085 47.3424 41.75 49 41.75C50.6576 41.75 52.2473 42.4085 53.4194 43.5806C54.5915 44.7527 55.25 46.3424 55.25 48C55.25 49.6576 54.5915 51.2473 53.4194 52.4194C52.2473 53.5915 50.6576 54.25 49 54.25C47.3424 54.25 45.7527 53.5915 44.5806 52.4194C43.4085 51.2473 42.75 49.6576 42.75 48ZM41.1875 23C41.6019 23 41.9993 23.1646 42.2924 23.4576C42.5854 23.7507 42.75 24.1481 42.75 24.5625V29.25H47.4375V24.5625C47.4375 24.1481 47.6021 23.7507 47.8951 23.4576C48.1882 23.1646 48.5856 23 49 23C49.4144 23 49.8118 23.1646 50.1049 23.4576C50.3979 23.7507 50.5625 24.1481 50.5625 24.5625V29.25H55.25V24.5625C55.25 24.1481 55.4146 23.7507 55.7076 23.4576C56.0007 23.1646 56.3981 23 56.8125 23C57.2269 23 57.6243 23.1646 57.9174 23.4576C58.2104 23.7507 58.375 24.1481 58.375 24.5625V29.25H59.9375C62.0095 29.25 63.9966 30.0731 65.4618 31.5382C66.9269 33.0034 67.75 34.9905 67.75 37.0625V38.625H72.4375C72.8519 38.625 73.2493 38.7896 73.5424 39.0826C73.8354 39.3757 74 39.7731 74 40.1875C74 40.6019 73.8354 40.9993 73.5424 41.2924C73.2493 41.5854 72.8519 41.75 72.4375 41.75H67.75V46.4375H72.4375C72.8519 46.4375 73.2493 46.6021 73.5424 46.8951C73.8354 47.1882 74 47.5856 74 48C74 48.4144 73.8354 48.8118 73.5424 49.1049C73.2493 49.3979 72.8519 49.5625 72.4375 49.5625H67.75V54.25H72.4375C72.8519 54.25 73.2493 54.4146 73.5424 54.7076C73.8354 55.0007 74 55.3981 74 55.8125C74 56.2269 73.8354 56.6243 73.5424 56.9174C73.2493 57.2104 72.8519 57.375 72.4375 57.375H67.75V58.9375C67.75 61.0095 66.9269 62.9966 65.4618 64.4618C63.9966 65.9269 62.0095 66.75 59.9375 66.75H58.375V71.4375C58.375 71.8519 58.2104 72.2493 57.9174 72.5424C57.6243 72.8354 57.2269 73 56.8125 73C56.3981 73 56.0007 72.8354 55.7076 72.5424C55.4146 72.2493 55.25 71.8519 55.25 71.4375V66.75H50.5625V71.4375C50.5625 71.8519 50.3979 72.2493 50.1049 72.5424C49.8118 72.8354 49.4144 73 49 73C48.5856 73 48.1882 72.8354 47.8951 72.5424C47.6021 72.2493 47.4375 71.8519 47.4375 71.4375V66.75H42.75V71.4375C42.75 71.8519 42.5854 72.2493 42.2924 72.5424C41.9993 72.8354 41.6019 73 41.1875 73C40.7731 73 40.3757 72.8354 40.0826 72.5424C39.7896 72.2493 39.625 71.8519 39.625 71.4375V66.75H38.0625C35.9905 66.75 34.0034 65.9269 32.5382 64.4618C31.0731 62.9966 30.25 61.0095 30.25 58.9375V57.375H25.5625C25.1481 57.375 24.7507 57.2104 24.4576 56.9174C24.1646 56.6243 24 56.2269 24 55.8125C24 55.3981 24.1646 55.0007 24.4576 54.7076C24.7507 54.4146 25.1481 54.25 25.5625 54.25H30.25V49.5625H25.5625C25.1481 49.5625 24.7507 49.3979 24.4576 49.1049C24.1646 48.8118 24 48.4144 24 48C24 47.5856 24.1646 47.1882 24.4576 46.8951C24.7507 46.6021 25.1481 46.4375 25.5625 46.4375H30.25V41.75H25.5625C25.1481 41.75 24.7507 41.5854 24.4576 41.2924C24.1646 40.9993 24 40.6019 24 40.1875C24 39.7731 24.1646 39.3757 24.4576 39.0826C24.7507 38.7896 25.1481 38.625 25.5625 38.625H30.25V37.0625C30.25 34.9905 31.0731 33.0034 32.5382 31.5382C34.0034 30.0731 35.9905 29.25 38.0625 29.25H39.625V24.5625C39.625 24.1481 39.7896 23.7507 40.0826 23.4576C40.3757 23.1646 40.7731 23 41.1875 23ZM64.625 37.0625C64.625 35.8193 64.1311 34.627 63.2521 33.7479C62.373 32.8689 61.1807 32.375 59.9375 32.375H38.0625C36.8193 32.375 35.627 32.8689 34.7479 33.7479C33.8689 34.627 33.375 35.8193 33.375 37.0625V58.9375C33.375 60.1807 33.8689 61.373 34.7479 62.2521C35.627 63.1311 36.8193 63.625 38.0625 63.625H59.9375C61.1807 63.625 62.373 63.1311 63.2521 62.2521C64.1311 61.373 64.625 60.1807 64.625 58.9375V37.0625Z" fill="white"/>
<defs>
<filter id="filter0_f_137_12" x="0" y="0" width="98" height="97" filterUnits="userSpaceOnUse" color-interpolation-filters="sRGB">
<feFlood flood-opacity="0" result="BackgroundImageFix"/>
<feBlend mode="normal" in="SourceGraphic" in2="BackgroundImageFix" result="shape"/>
<feGaussianBlur stdDeviation="14" result="effect1_foregroundBlur_137_12"/>
</filter>
</defs>
</svg>
