<svg width="80" height="87" viewBox="0 0 80 87" fill="none" xmlns="http://www.w3.org/2000/svg">
<g filter="url(#filter0_f_137_18)">
<rect x="26" y="26" width="28" height="35" rx="14" fill="#EA6045"/>
</g>
<path fill-rule="evenodd" clip-rule="evenodd" d="M26 53.5626C26 50.1209 30.7802 47.9688 35.2104 47.0227C35.4936 46.9631 35.7741 46.9073 36.0525 46.8568C36.0834 46.8512 36.1119 46.875 36.1119 46.9065C36.1119 48.6193 37.8471 50.0082 39.9907 50.0126H40.0093C42.1529 50.0082 43.8889 48.6193 43.8889 46.9065C43.8889 46.875 43.9173 46.8512 43.9483 46.8568C44.4335 46.945 44.9168 47.0461 45.3978 47.1603C49.6476 48.1667 54 50.2789 54 53.5626V57C54 57.5523 53.5523 58 53 58H27C26.4477 58 26 57.5523 26 57V53.5626ZM27.5556 53.5626C27.5556 52.826 28.1334 51.7991 30.0079 50.7244C30.6755 50.3425 31.4315 50.0007 32.2357 49.702C32.9761 49.4271 33.7181 50.1616 33.8028 50.9469C33.837 51.2636 33.9046 51.5767 34.0054 51.8791C34.2988 52.7585 34.8548 53.4915 35.5755 53.9489C36.2962 54.4062 37.1352 54.5585 37.9447 54.3789C38.3136 54.297 38.6656 54.1486 38.9884 53.942C39.5697 53.5701 40.4303 53.5701 41.0116 53.942C41.3344 54.1486 41.6864 54.297 42.0553 54.3789C42.8648 54.5585 43.7038 54.4062 44.4245 53.9489C45.1452 53.4915 45.7012 52.7585 45.9946 51.8791C46.0953 51.5771 46.1628 51.2644 46.1971 50.9481C46.2821 50.1626 47.0248 49.4277 47.7655 49.7025C48.5692 50.0009 49.3248 50.3421 49.9921 50.7244C51.8666 51.7991 52.4444 52.826 52.4444 53.5626V55.225C52.4444 55.7773 51.9967 56.225 51.4444 56.225H50.3333C49.781 56.225 49.3333 55.7773 49.3333 55.225V53.4529C49.3333 53.0233 48.9851 52.6751 48.5556 52.6751C48.126 52.6751 47.7778 53.0233 47.7778 53.4529V55.225C47.7778 55.7773 47.3301 56.225 46.7778 56.225H33.2222C32.6699 56.225 32.2222 55.7773 32.2222 55.225V53.4529C32.2222 53.0233 31.874 52.6751 31.4444 52.6751C31.0149 52.6751 30.6667 53.0233 30.6667 53.4529V55.225C30.6667 55.7773 30.219 56.225 29.6667 56.225H28.5556C28.0033 56.225 27.5556 55.7773 27.5556 55.225V53.5626ZM37.8258 52.5885C38.4834 52.3672 38.1671 51.5537 37.5337 51.2703C37.1107 51.0811 36.7151 50.842 36.3577 50.5567C35.9301 50.2167 35.2745 50.3641 35.3702 50.9019C35.3899 51.0129 35.4172 51.1226 35.452 51.23C35.6188 51.7446 35.9468 52.1704 36.3725 52.4252C36.7983 52.68 37.2918 52.7458 37.7576 52.6099C37.7804 52.6032 37.8032 52.5961 37.8258 52.5885ZM41.106 51.6891C41.1056 51.6891 41.1054 51.6895 41.1056 51.6897C41.3719 52.1462 41.7769 52.474 42.2424 52.6099C42.7082 52.7458 43.2017 52.68 43.6275 52.4252C44.0532 52.1704 44.3812 51.7446 44.548 51.23C44.5827 51.1227 44.61 51.0132 44.6297 50.9024C44.7256 50.3641 44.0695 50.2163 43.6416 50.5567C42.9221 51.1318 42.0471 51.5187 41.106 51.6891C41.106 51.6891 41.106 51.6891 41.106 51.6891ZM43.5949 27.4058L40.3642 26.1424C40.13 26.0508 39.87 26.0508 39.6358 26.1424L36.4051 27.4058C35.6384 27.7058 34.973 28.2717 34.502 29.0243C34.0309 29.7769 33.7777 30.6787 33.7778 31.6036V37.5815C33.7778 37.585 33.7806 37.5879 33.7842 37.5879C33.7879 37.5879 33.7908 37.591 33.7906 37.5947C33.7819 37.7401 33.7776 37.8858 33.7778 38.0316C33.7778 41.7076 36.5638 44.6877 40 44.6877C43.4362 44.6877 46.2222 41.7076 46.2222 38.0316C46.2222 37.8848 46.2177 37.7389 46.2094 37.5947C46.2092 37.591 46.2121 37.5879 46.2158 37.5879C46.2193 37.5879 46.2222 37.585 46.2222 37.5815V31.6036C46.2223 30.6787 45.9691 29.7769 45.498 29.0243C45.027 28.2717 44.3616 27.7058 43.5949 27.4058ZM40 31.3755C38.8483 31.3755 37.77 31.71 36.8451 32.2935C36.2679 32.6575 35.3333 32.286 35.3333 31.6036C35.3333 31.0486 35.4852 30.5076 35.7679 30.056C36.0506 29.6044 36.4498 29.2649 36.9099 29.0849L39.6357 28.0186C39.8699 27.927 40.1301 27.927 40.3643 28.0186L43.0901 29.0849C43.5502 29.2649 43.9494 29.6044 44.2321 30.056C44.5148 30.5076 44.6667 31.0486 44.6667 31.6036C44.6667 32.2859 43.7325 32.6575 43.1553 32.2935C42.2303 31.7101 41.1519 31.3755 40 31.3755ZM40 42.9128C42.6732 42.9128 44.6667 40.6213 44.6667 38.0316C44.6667 35.4419 42.6732 33.1505 40 33.1505C37.3268 33.1505 35.3333 35.4419 35.3333 38.0316C35.3333 40.6213 37.3268 42.9128 40 42.9128Z" fill="white"/>
<defs>
<filter id="filter0_f_137_18" x="0" y="0" width="80" height="87" filterUnits="userSpaceOnUse" color-interpolation-filters="sRGB">
<feFlood flood-opacity="0" result="BackgroundImageFix"/>
<feBlend mode="normal" in="SourceGraphic" in2="BackgroundImageFix" result="shape"/>
<feGaussianBlur stdDeviation="13" result="effect1_foregroundBlur_137_18"/>
</filter>
</defs>
</svg>
