<svg width="162" height="162" viewBox="0 0 162 162" fill="none" xmlns="http://www.w3.org/2000/svg">
<g filter="url(#filter0_f_137_5)">
<rect x="54" y="54" width="54" height="54" rx="27" fill="#EA6045"/>
</g>
<path d="M79 56C66.8679 56 57 65.8679 57 78C57 90.1321 66.8679 100 79 100C91.1321 100 101 90.1321 101 78C101 65.8679 91.1321 56 79 56ZM80.1026 59.1143C85.7426 59.4368 90.7088 62.2176 93.9565 66.4042C93.0994 66.3822 92.2462 66.377 91.3966 66.3897C89.9217 66.4142 88.4482 66.4922 86.979 66.6238C86.7088 66.0661 86.2871 65.5958 85.762 65.2667C85.237 64.9375 84.6299 64.7628 84.0103 64.7626C83.8567 64.7626 83.7034 64.7734 83.5514 64.7947C82.518 62.8331 81.3663 60.9361 80.1026 59.1143ZM77.4283 59.1495C79.0286 61.3359 80.4159 63.5552 81.603 65.8054C81.1614 66.2764 80.8677 66.8666 80.7582 67.5029C78.7056 67.9029 76.6746 68.4066 74.673 69.0121C74.424 68.6754 74.1131 68.3891 73.757 68.1686C74.5872 65.2052 75.7488 62.2027 77.2338 59.164C77.2985 59.1583 77.3636 59.1552 77.4283 59.1495ZM74.5947 59.5992C73.3539 62.3118 72.3639 65.0143 71.6274 67.6996C71.1818 67.7531 70.7518 67.8968 70.3637 68.1221C69.9756 68.3474 69.6375 68.6495 69.3702 69.0099C67.3849 68.3768 65.3741 67.8266 63.343 67.3608C65.9939 63.4604 70.0072 60.692 74.5947 59.5992ZM92.6888 68.5831C93.6093 68.5888 94.5342 68.6183 95.4639 68.6667C96.5752 70.624 97.3259 72.765 97.6802 74.9878C95.0182 75.4207 92.4266 76.0204 89.9036 76.7764C89.6313 76.4391 89.2951 76.1588 88.9144 75.9515C88.5337 75.7442 88.1158 75.6139 87.6847 75.5681C87.2607 73.8797 86.7441 72.2159 86.1372 70.5842C86.6829 70.1238 87.0646 69.4989 87.2249 68.8031C89.0285 68.6465 90.8488 68.5712 92.6888 68.5831ZM62.1621 69.3584C64.407 69.8525 66.5973 70.4302 68.7238 71.1092C68.7239 71.1136 68.7241 71.118 68.7242 71.1224C65.8607 72.2985 63.0452 73.6854 60.2767 75.2746C60.5728 73.2117 61.21 71.2123 62.1621 69.3584ZM81.1234 69.6594C81.4087 70.1751 81.8268 70.605 82.3344 70.9044C82.842 71.2039 83.4205 71.3619 84.0098 71.3622C84.0395 71.3618 84.0691 71.3611 84.0987 71.36C84.674 72.9003 85.164 74.4711 85.5666 76.0653C85.4013 76.1701 85.2456 76.2894 85.1015 76.4217C81.9987 74.3994 78.723 72.6557 75.3128 71.2108C75.3155 71.1733 75.3175 71.1357 75.319 71.0982C77.2286 70.5215 79.1655 70.0412 81.1234 69.6594ZM69.5426 73.1534C69.7853 73.4293 70.0723 73.6628 70.3918 73.8442C69.8498 78.0862 69.9699 82.2689 70.7971 86.3604C68.8476 87.786 66.9695 89.3066 65.1695 90.9166C62.0125 87.5379 60.08 83.001 60.08 78C60.08 77.9793 60.0818 77.9595 60.0818 77.9388C63.1824 76.0759 66.3342 74.4756 69.5426 73.1534ZM74.4359 73.2234C77.7973 74.6438 81.0228 76.3665 84.0728 78.37C84.0491 78.5288 84.037 78.6891 84.0367 78.8496C84.0367 78.8565 84.0367 78.8634 84.0367 78.8703C80.0943 80.5093 76.3305 82.5575 72.741 84.9925C72.1206 81.4734 72.0546 77.8865 72.5179 74.2371C73.2532 74.125 73.9291 73.7678 74.4359 73.2234ZM97.8993 77.1807C97.9108 77.4522 97.92 77.725 97.92 77.9996C97.9228 80.6793 97.3554 83.329 96.2555 85.7726C94.4036 83.8006 92.4239 81.9527 90.3291 80.2409C90.5309 79.8071 90.636 79.3347 90.6371 78.8562C93.0203 78.146 95.4459 77.5864 97.8993 77.1807ZM84.7794 80.9335C85.2543 81.5164 85.914 81.9197 86.6494 82.0766C87.1308 86.4366 86.9838 90.9056 86.2393 95.4878C83.9437 96.436 81.4837 96.9227 79 96.92C78.3501 96.92 77.7077 96.8874 77.075 96.8236C75.3097 93.7155 74.035 90.5448 73.2342 87.3166C76.8986 84.7544 80.742 82.6191 84.7794 80.9335ZM88.819 81.8399C91.0802 83.6823 93.2034 85.6878 95.1718 87.8402C93.5553 90.4925 91.3118 92.707 88.6386 94.2888C89.204 90.0639 89.2722 85.9099 88.819 81.8408V81.8399ZM71.3466 88.6841C72.0462 91.277 73.0336 93.8308 74.318 96.337C71.5369 95.6299 68.9541 94.2968 66.7667 92.4395C68.2614 91.1107 69.7877 89.8567 71.3466 88.6841Z" fill="white"/>
<defs>
<filter id="filter0_f_137_5" x="0" y="0" width="162" height="162" filterUnits="userSpaceOnUse" color-interpolation-filters="sRGB">
<feFlood flood-opacity="0" result="BackgroundImageFix"/>
<feBlend mode="normal" in="SourceGraphic" in2="BackgroundImageFix" result="shape"/>
<feGaussianBlur stdDeviation="27" result="effect1_foregroundBlur_137_5"/>
</filter>
</defs>
</svg>
