<svg width="82" height="84" viewBox="0 0 82 84" fill="none" xmlns="http://www.w3.org/2000/svg">
<g filter="url(#filter0_f_137_14)">
<rect x="26" y="26" width="30" height="32" rx="9" fill="#35B5DE"/>
</g>
<path d="M33.75 45.2L36.8456 42.1045C37.0987 41.8514 37.442 41.7092 37.8 41.7092C38.158 41.7092 38.5013 41.8514 38.7544 42.1045L40.8956 44.2456C41.1487 44.4987 41.492 44.6409 41.85 44.6409C42.208 44.6409 42.5513 44.4987 42.8044 44.2456L47.25 39.8M47.25 39.8V43.175M47.25 39.8H43.875" stroke="white" stroke-width="2" stroke-linecap="round" stroke-linejoin="round"/>
<path d="M54 42.5C54 48.8639 54 52.0459 52.0223 54.0223C50.0472 56 46.8639 56 40.5 56C34.1361 56 30.9542 56 28.9764 54.0223C27 52.0472 27 48.8639 27 42.5C27 36.1361 27 32.9542 28.9764 30.9764C30.9555 29 34.1361 29 40.5 29C46.8639 29 50.0459 29 52.0223 30.9764C53.3372 32.2913 53.7773 34.1394 53.9258 37.1" stroke="white" stroke-width="2" stroke-linecap="round"/>
<defs>
<filter id="filter0_f_137_14" x="0" y="0" width="82" height="84" filterUnits="userSpaceOnUse" color-interpolation-filters="sRGB">
<feFlood flood-opacity="0" result="BackgroundImageFix"/>
<feBlend mode="normal" in="SourceGraphic" in2="BackgroundImageFix" result="shape"/>
<feGaussianBlur stdDeviation="13" result="effect1_foregroundBlur_137_14"/>
</filter>
</defs>
</svg>
