<svg width="128" height="110" viewBox="0 0 128 110" fill="none" xmlns="http://www.w3.org/2000/svg">
<g filter="url(#filter0_f_137_2)">
<path d="M64 61C72.2843 61 79 54.2843 79 46C79 37.7157 72.2843 31 64 31C55.7157 31 49 37.7157 49 46C49 54.2843 55.7157 61 64 61Z" fill="white"/>
</g>
<path d="M63 69.8319C76.8071 69.8319 88 58.6767 88 44.916C88 31.1553 76.8071 20 63 20C49.1929 20 38 31.1553 38 44.916C38 58.6767 49.1929 69.8319 63 69.8319Z" fill="white"/>
<path d="M65.1079 43.4034C65.3186 42.479 66.2377 40.2521 68.2276 38.7395C69.0427 40.4061 70.462 44.395 69.6188 47.0168C70.1528 48.6275 70.1163 52.2185 65.6981 53.6975C67.2017 55.5462 70.0826 59.8739 70.3355 64.4958C70.5521 68.4538 68.7335 69.5669 67.553 69.7479C66.3726 69.9289 65.0358 69.999 63.4215 70C61.7744 70.001 60.0488 69.8739 59.2057 69.7479C58.3625 69.6218 56.5497 69.1765 56.381 67.0588C56.1702 64.4118 55.6643 60.2101 60.7655 53.6975C58.9527 53.1372 55.6222 51.0168 56.8026 47.0168C56.381 45.9524 56.0606 42.8067 58.1517 38.7395C59.037 39.3838 60.9089 41.2185 61.3136 43.4034C61.96 43.1933 63.6239 42.8992 65.1079 43.4034Z" fill="black"/>
<path d="M76.3819 38.1788C76.9906 38.9117 78.0803 39.0139 78.8156 38.4071C79.5508 37.8003 79.6535 36.7144 79.0446 35.9816L76.3819 38.1788ZM63.6981 65.084C54.6062 65.084 47.2326 57.7303 47.2326 48.6555H43.7756C43.7756 59.6299 52.6936 68.5294 63.6981 68.5294V65.084ZM47.2326 48.6555C47.2326 39.5806 54.6062 32.2269 63.6981 32.2269V28.7815C52.6936 28.7815 43.7756 37.681 43.7756 48.6555H47.2326ZM63.6981 32.2269C68.7997 32.2269 73.3587 34.5397 76.3819 38.1788L79.0446 35.9816C75.3933 31.5864 69.8735 28.7815 63.6981 28.7815V32.2269Z" fill="black"/>
<path d="M70.8837 68.5714C70.0068 68.5714 69.8859 67.9271 69.9562 67.605L68.5649 69.0756L68.9865 69.2437L70.8837 68.5714Z" fill="black"/>
<path d="M55.6223 68.7815C56.4992 68.7815 56.62 68.1372 56.5498 67.8151L57.941 69.2857L57.5194 69.4538L55.6223 68.7815Z" fill="black"/>
<defs>
<filter id="filter0_f_137_2" x="0" y="-18" width="128" height="128" filterUnits="userSpaceOnUse" color-interpolation-filters="sRGB">
<feFlood flood-opacity="0" result="BackgroundImageFix"/>
<feBlend mode="normal" in="SourceGraphic" in2="BackgroundImageFix" result="shape"/>
<feGaussianBlur stdDeviation="24.5" result="effect1_foregroundBlur_137_2"/>
</filter>
</defs>
</svg>
